<svg xmlns="http://www.w3.org/2000/svg" viewBox="0 0 144.47 142.07"><defs><style>.fcffd9fb-8441-4eab-88ae-5b5e5af813d8{fill:#e3e903;}</style></defs><g id="a3242b7b-6155-4458-8160-cfc3068b660f" data-name="Capa 2"><g id="be5f2150-4ee4-4fd2-ad38-836a64621816" data-name="Capa 1"><path class="fcffd9fb-8441-4eab-88ae-5b5e5af813d8" d="M79.43,67.48s0-4.42.55-10.51a71.47,71.47,0,0,1-8.11,7s-3.32-2.76-7.75-7c.56,6.09.56,10.51.56,10.51s-4.24.93-10.33,1.66C59.51,72.46,63,75.23,63,75.23s-2,4-5.17,9.22c5.9-1.85,10.14-3,10.14-3s1.85,4,4.06,9.77c2.21-5.72,4.06-9.77,4.06-9.77s4.24,1.1,10.14,3c-3.14-5.35-5.16-9.22-5.16-9.22s3.5-2.77,8.66-6.09C83.67,68.41,79.43,67.48,79.43,67.48Z"/><path d="M130.69,59.92A27.09,27.09,0,0,0,98.23,19.36a27.13,27.13,0,0,0-52,0,26.78,26.78,0,0,0-31.35,8.3,27.14,27.14,0,0,0-1.1,32.26A27.14,27.14,0,0,0,25.4,110.63a27.07,27.07,0,0,0,46.84,22.49,27.07,27.07,0,0,0,46.83-22.49,27.14,27.14,0,0,0,11.62-50.71ZM86.25,84.45c-5.9-1.85-10.14-3-10.14-3s-1.85,4-4.06,9.77C69.84,85.55,68,81.5,68,81.5s-4.24,1.1-10.14,3C61,79.28,63,75.23,63,75.23s-3.51-2.77-8.67-6.09c6.09-.73,10.33-1.66,10.33-1.66s0-4.42-.56-10.51c4.43,4.25,7.75,7,7.75,7A71.47,71.47,0,0,0,80,57c-.55,6.09-.55,10.51-.55,10.51s4.24.93,10.32,1.66c-5.16,3.32-8.66,6.09-8.66,6.09S83.11,79.1,86.25,84.45Z"/></g></g></svg>