<svg xmlns="http://www.w3.org/2000/svg" viewBox="0 0 2007 980"><defs><style>.ff0ac8cb-25a7-4632-a182-9f4ef91d8332{fill:#ff77e6;}.b4d8bdd6-4ee3-495c-ae4b-54d717fc1ed1{fill:#e3e903;}</style></defs><g id="fad6b994-22ea-4523-9af4-4b43fc864610" data-name="Capa 2"><g id="fe14db4a-4e2d-4b9f-9018-6ba76c86950b" data-name="Capa 1"><path class="ff0ac8cb-25a7-4632-a182-9f4ef91d8332" d="M1891,627.21c-48.31,52.8-127,70.78-194.37,38.2s-102.25-104.49-91-175.28a165.76,165.76,0,0,1-150.56-128.08c-16.85-73,18-146.07,79.77-180.89-37-53.5-39.21-123.94-3.95-181.16H0V494.44A165.87,165.87,0,0,1,77.6,506a165.35,165.35,0,0,1,316.84,0,164.77,164.77,0,0,1,191,49.44c47.19,58.42,47.19,139.32,6.74,197.75C654,788,688.81,861,672,934.05a165.65,165.65,0,0,1-18.14,46H2007V681.56A167.82,167.82,0,0,1,1891,627.21Z"/><path class="b4d8bdd6-4ee3-495c-ae4b-54d717fc1ed1" d="M279.84,799.22s0-27,3.37-64a440.08,440.08,0,0,1-49.44,42.69S213.55,761,186.58,735.18c3.37,37.08,3.37,64,3.37,64s-25.84,5.62-62.91,10.11c31.46,20.23,52.8,37.08,52.8,37.08s-12.36,24.72-31.46,56.18c36-11.24,61.8-18,61.8-18s11.23,24.72,24.72,59.55c13.48-34.83,24.71-59.55,24.71-59.55s25.85,6.74,61.8,18C302.31,870,290,846.41,290,846.41s21.35-16.85,52.81-37.08C305.68,804.84,279.84,799.22,279.84,799.22Z"/><path d="M592.19,753.16c40.45-58.43,40.45-139.33-6.74-197.75a164.77,164.77,0,0,0-191-49.44A165.35,165.35,0,0,0,77.6,506,165.87,165.87,0,0,0,0,494.44V980H653.82a165.65,165.65,0,0,0,18.14-46C688.81,861,654,788,592.19,753.16ZM321.41,902.59c-36-11.24-61.8-18-61.8-18s-11.23,24.72-24.71,59.55c-13.49-34.83-24.72-59.55-24.72-59.55s-25.84,6.74-61.8,18c19.1-31.46,31.46-56.18,31.46-56.18S158.5,829.56,127,809.33c37.07-4.49,62.91-10.11,62.91-10.11s0-27-3.37-64c27,25.84,47.19,42.69,47.19,42.69a440.08,440.08,0,0,0,49.44-42.69c-3.37,37.08-3.37,64-3.37,64s25.84,5.62,62.92,10.11C311.3,829.56,290,846.41,290,846.41S302.31,870,321.41,902.59Z"/><path class="b4d8bdd6-4ee3-495c-ae4b-54d717fc1ed1" d="M1997.76,237.33c-37.08-4.49-62.92-10.11-62.92-10.11s0-27,3.37-64a440.08,440.08,0,0,1-49.44,42.69s-20.22-16.85-47.19-42.69c3.37,37.08,3.37,64,3.37,64s-25.84,5.62-62.91,10.11c31.46,20.23,52.8,37.08,52.8,37.08s-12.36,24.72-31.46,56.18c36-11.24,61.8-18,61.8-18s11.23,24.72,24.72,59.55c13.48-34.83,24.71-59.55,24.71-59.55s25.85,6.74,61.8,18C1957.31,298,1945,274.41,1945,274.41S1966.3,257.56,1997.76,237.33Z"/><path d="M1530.9,0c-35.26,57.22-33.08,127.66,3.95,181.16C1473.06,216,1438.23,289,1455.08,362.05a165.76,165.76,0,0,0,150.56,128.08c-11.24,70.79,23.59,142.69,91,175.28S1842.71,680,1891,627.21a167.82,167.82,0,0,0,116,54.35V0Zm383.71,312.61s-11.23,24.72-24.71,59.55c-13.49-34.83-24.72-59.55-24.72-59.55s-25.84,6.74-61.8,18c19.1-31.46,31.46-56.18,31.46-56.18s-21.34-16.85-52.8-37.08c37.07-4.49,62.91-10.11,62.91-10.11s0-27-3.37-64c27,25.84,47.19,42.69,47.19,42.69a440.08,440.08,0,0,0,49.44-42.69c-3.37,37.08-3.37,64-3.37,64s25.84,5.62,62.92,10.11c-31.46,20.23-52.81,37.08-52.81,37.08s12.36,23.59,31.46,56.18C1940.46,319.35,1914.61,312.61,1914.61,312.61Z"/></g></g></svg>