<svg xmlns="http://www.w3.org/2000/svg" viewBox="0 0 1273.49 248.74"><g id="Capa_2" data-name="Capa 2"><g id="Capa_2-2" data-name="Capa 2"><path d="M596.94,156.75l1.19,1.69a68.11,68.11,0,0,1,12.61,39c-.06,14.68-5.34,27.69-15.27,37.62a53.44,53.44,0,0,1-5.83,5,53,53,0,0,0,23.19,5.54c18.52,0,36-10.22,45.7-26.66L696.34,153c1.45-2.54,2.95-3.81,5.52-2.71,3.43,1.47,2,5.88,1.27,6.92L692,177.73l28.8,41.19a52.33,52.33,0,0,0,45.68,26.64,53.39,53.39,0,0,0,26.63-7.24A52,52,0,0,0,819,193a50.93,50.93,0,0,0-7.21-26.23L734.27,33C720.14,9.59,696.53,7.76,689.63,7.76A51,51,0,0,0,645,33.05L611.59,90.64a103.95,103.95,0,0,1-14.65,66.11Z"/><path d="M590.46,167.49c-5.46,6.87-11.46,12.87-19,17.56-1.58,1-5.15,4.06-7.42,1.31-1.82-2.21-1-4.16,1.19-5.57,25.75-18,40.51-46.71,40.51-78.82A94.57,94.57,0,0,0,511.24,7.5H434.15a52.6,52.6,0,0,0-47.66,29.85,126.42,126.42,0,0,1,38.89,91.12,124.92,124.92,0,0,1-37.23,89.39c8.87,16.2,25.9,27.44,45,27.44,27.89,0,50.15-20.72,51.79-48.2l.47-8,34.87,39.72c9.18,10.77,20.93,16.44,34,16.44,13.39,0,27.4-5.7,36.57-14.87,19.62-19.62,16.17-48.07,3.29-67.6C592.86,164.39,591.66,166,590.46,167.49Zm-96.08-47.1c-3,0-5.39,0-7.89-1.5l-1.59-1V90.82l1.6-1a14.32,14.32,0,0,1,7.88-2.19c8.79,0,15.67,7.34,15.67,16.7C510.05,113.5,503.31,120.39,494.38,120.39Z"/><path d="M296.48,7.5A121.67,121.67,0,0,0,203.3,50.86a125.62,125.62,0,0,1-1.84,152.5,121.93,121.93,0,0,0,95,45.38c67.46,0,122.34-54,122.34-120.27C418.82,61.77,363.94,7.5,296.48,7.5Zm0,137.67c-8.89,0-16.7-8.29-16.7-17.74A16.88,16.88,0,0,1,296.48,110c10.11,0,17.74,7.48,17.74,17.39A17.76,17.76,0,0,1,296.48,145.17Z"/><path d="M104.44,7.5h-53A51.68,51.68,0,0,0,0,59.29v135.6c0,28.27,23.05,50.41,52.47,50.41H102c65.94,0,119.59-53.49,119.59-119.24C221.62,60.69,169.05,7.5,104.44,7.5Zm3.79,134.57H97.72V109.7h10.51a16.53,16.53,0,0,1,16.7,16.7C124.93,135.33,117.75,142.07,108.23,142.07Z"/><path d="M1096.7,78.56h10.43c0,1.25.06,2.45,0,3.64-.49,9.5-2.77,18.43-8.8,26.05a34.91,34.91,0,0,1-14.53,10.8,46.38,46.38,0,0,1-29.62,1.93c-11.19-2.85-19.19-9.7-24.28-20a57.7,57.7,0,0,1-5.69-30.55,51.44,51.44,0,0,1,4.15-17.34A37.42,37.42,0,0,1,1048,33.65a47.28,47.28,0,0,1,31.24-2.87c11.91,2.91,20.09,10.16,24.62,21.54a50.28,50.28,0,0,1,3.37,16.75c.06,1.56,0,1.56-1.57,1.56q-34.2,0-68.38,0c-1.21,0-1.63.24-1.67,1.55-.15,5.75,0,11.46,1.63,17,3.41,11.69,11.08,19,22.87,21.94a28.46,28.46,0,0,0,24.12-4.41,25.21,25.21,0,0,0,9.27-12.35,52.78,52.78,0,0,0,2.22-7.69C1096.27,84.07,1096.39,81.38,1096.7,78.56Zm-59-18.72h58.06c-1.07-5.88-6.37-12.74-12-15.82a34.85,34.85,0,0,0-17.46-4.22c-9.27.1-17.27,3.17-23.34,10.42A28.94,28.94,0,0,0,1037.67,59.84Z"/><path d="M1209.61,55.3l-9.15-5.48a34.91,34.91,0,0,1,12.91-14.47A44.06,44.06,0,0,1,1255.71,34c8.1,4.33,13.24,11.09,15.78,19.86a46.56,46.56,0,0,1,1.78,12.75q.13,27.27.22,54.56c0,.29,0,.57,0,1h-11.3v-24a75.43,75.43,0,0,1-2.73,7.87c-4.36,9.36-11.87,14.86-21.94,16.67a46,46,0,0,1-26.88-3.1c-9.32-4-14.35-12.27-14.24-22.9.09-7.72,2.4-14.47,8.27-19.73a31.1,31.1,0,0,1,14.88-7.1,49.53,49.53,0,0,1,9.32-1c10.66-.12,21.33,0,32,0h1.77c-.12-2-.14-4-.35-5.87a30.86,30.86,0,0,0-3.45-12,20,20,0,0,0-13.41-10.09,35.1,35.1,0,0,0-21,1,26.7,26.7,0,0,0-14.12,12.2Zm53.49,23.37h-1.76c-8.32,0-16.64,0-25,0a83.51,83.51,0,0,0-8.38.39c-4.91.54-9.63,1.8-13.73,4.71a16.22,16.22,0,0,0-7.19,12.49c-.4,5.45,2.82,10.48,8.2,13.12a38.8,38.8,0,0,0,21.35,3.68,27.16,27.16,0,0,0,19.64-10.81,31.63,31.63,0,0,0,6-15C1262.61,84.48,1262.8,81.66,1263.1,78.67Z"/><path d="M893.49,61.27c-.26-19.7-.5-39-.75-58.43h10.62V121.92H892.64V97.17c-.23.72-.41,1.27-.58,1.82a33.91,33.91,0,0,1-9.06,15.5,28.64,28.64,0,0,1-16,7.35,29.17,29.17,0,0,1-23-6.09c-6.38-5-10-11.77-12.13-19.45-2.64-9.72-3-19.63-1.91-29.61.77-7.48,2.67-14.65,6.64-21.1,5.58-9.09,13.66-14.52,24.31-15.87a26.78,26.78,0,0,1,26.83,13.45,48.27,48.27,0,0,1,5.56,17.45A5.75,5.75,0,0,0,893.49,61.27Zm-.79,16a59,59,0,0,0-4.27-21.16c-4-9.7-10.58-16.06-21.69-16.31-6.54-.15-12.39,1.69-17.08,6.46-4.25,4.31-6.45,9.7-7.81,15.47a59,59,0,0,0-1,21.68c.8,6,2.1,11.78,5.16,17,3.17,5.46,7.55,9.49,13.86,11,8.45,2,20.6-1.4,27-10.91C891.73,93.46,892.69,85.49,892.7,77.29Z"/><path d="M1016,68.39h-10.86c-.37-2.39-.59-4.76-1.11-7.07-2.54-11.18-9.43-18.16-20.63-20.56a44.31,44.31,0,0,0-27,2.57,15.11,15.11,0,0,0-8.13,7.11,11.77,11.77,0,0,0,3.09,14.72,23,23,0,0,0,11.86,5c4.58.61,9.23.86,13.86,1,6.91.25,13.77.85,20.43,2.82,4.53,1.34,8.78,3.23,12.25,6.58A20,20,0,0,1,1015.73,95c.21,6.83-1.58,13-6.38,18a27.12,27.12,0,0,1-11,6.72,62.7,62.7,0,0,1-41.13-1.62c-10.78-4.73-17.58-12.81-20.16-24.29-.74-3.28-.93-6.68-1.39-10.17h10.72c.11,1.73.07,3.49.33,5.2,1.44,9.18,6.45,15.72,14.89,19.55,7.94,3.6,16.3,4.42,24.9,3.33A27.91,27.91,0,0,0,999.76,107c5.14-3.73,7.16-11.55,4.23-16.81-1.74-3.12-4.7-4.79-7.87-6.12a44.83,44.83,0,0,0-14.55-3c-5.51-.36-11-.42-16.54-.79a42.07,42.07,0,0,1-18.32-5.08C939.22,71,935.82,64.36,936,55.89c.15-9.88,5-16.8,13.64-21.29A45.56,45.56,0,0,1,967.42,30a76.77,76.77,0,0,1,13.39,0c9.36.93,17.92,4.07,24.8,10.82A32.93,32.93,0,0,1,1015,59.49C1015.45,62.4,1015.63,65.35,1016,68.39Z"/><path d="M1189,122.15H1177.4V120.6q0-29.75,0-59.48a25,25,0,0,0-2.18-10.84,16.85,16.85,0,0,0-13.26-10c-10.82-1.72-19.87,1.39-26.47,10.39-3.11,4.25-4.43,9.24-5,14.42a52.22,52.22,0,0,0-.31,5.87q0,24.72,0,49.44v1.7h-10.69V29.71h10.65q-.36,14.81-.73,29.56A46.44,46.44,0,0,1,1132.12,48a28.16,28.16,0,0,1,30.09-18.27c5,.57,9.9,1.61,14.29,4.27a24.5,24.5,0,0,1,11.4,16,38,38,0,0,1,1,8.42c.09,20.71,0,41.41,0,62.12Z"/><path d="M916.37,29.62h10.71v92.47H916.37Z"/><path d="M1138.15,0,1144,2.68c-.94,1.41-1.87,2.73-2.72,4.1a11.09,11.09,0,0,0-1,2.16c-.68,2-.33,3.53,1,4.55,1.69,1.32,3.78,1.65,5.34.4a24.71,24.71,0,0,0,4.32-4.47c2.21-3,4.44-5.85,7.81-7.63,5.74-3,14.06,0,16,5.81a8.18,8.18,0,0,1-.21,5.77c-1.18,2.84-2.61,5.57-4,8.46l-6.27-3.52c.92-1.37,1.87-2.63,2.64-4a10.44,10.44,0,0,0,1.12-2.9,3.45,3.45,0,0,0-4.17-4.34c-2.33.38-3.79,2-5.17,3.71-1.67,2.08-3.21,4.3-5.05,6.22-2.59,2.69-5.7,4.58-9.65,4.27a12.55,12.55,0,0,1-8.67-4.25,8.42,8.42,0,0,1-1.89-7.16C1134,6.12,1135.85,3,1138.15,0Z"/><path d="M929.21,10.67a7.48,7.48,0,1,1-15-.09,7.48,7.48,0,1,1,15,.09Z"/></g></g></svg>