<svg xmlns="http://www.w3.org/2000/svg" viewBox="0 0 819 375.93"><g id="fe78132c-d91f-4c0b-990e-9b89ec198d8c" data-name="Capa 2"><g id="f61ae06e-cbde-4e1d-bed2-056638028403" data-name="Capa 2"><path d="M596.94,149.25l1.19,1.68a68.14,68.14,0,0,1,12.61,39c-.06,14.68-5.34,27.69-15.27,37.61a52.43,52.43,0,0,1-5.83,5,53.14,53.14,0,0,0,23.19,5.53c18.52,0,36-10.21,45.7-26.66l37.81-65.89c1.45-2.55,2.95-3.81,5.52-2.71,3.43,1.47,2,5.88,1.27,6.92L692,170.23l28.8,41.19a52.32,52.32,0,0,0,45.68,26.63,53.39,53.39,0,0,0,26.63-7.24A52,52,0,0,0,819,185.48a51,51,0,0,0-7.21-26.24L734.27,25.5C720.14,2.08,696.53.26,689.63.26A51,51,0,0,0,645,25.55L611.59,83.14a103.95,103.95,0,0,1-14.65,66.11Z"/><path d="M590.46,160c-5.46,6.87-11.46,12.87-19,17.56-1.58,1-5.15,4.06-7.42,1.31-1.82-2.2-1-4.15,1.19-5.56,25.75-18,40.51-46.72,40.51-78.83A94.57,94.57,0,0,0,511.24,0H434.15a52.58,52.58,0,0,0-47.66,29.85A126.41,126.41,0,0,1,425.38,121a124.89,124.89,0,0,1-37.23,89.39c8.87,16.2,25.9,27.44,45,27.44,27.89,0,50.15-20.72,51.79-48.19l.47-8,34.87,39.73c9.18,10.76,20.93,16.43,34,16.43,13.39,0,27.4-5.69,36.57-14.87,19.62-19.62,16.17-48.07,3.29-67.59C592.86,156.89,591.66,158.46,590.46,160Zm-96.08-47.09c-3,0-5.39,0-7.89-1.51l-1.59-.95V83.31l1.6-1a14.24,14.24,0,0,1,7.88-2.19c8.79,0,15.67,7.33,15.67,16.7C510.05,106,503.31,112.89,494.38,112.89Z"/><path d="M296.48,0A121.66,121.66,0,0,0,203.3,43.35a125.62,125.62,0,0,1-1.84,152.5,121.9,121.9,0,0,0,95,45.39c67.46,0,122.34-54,122.34-120.28C418.82,54.26,363.94,0,296.48,0Zm0,137.66c-8.89,0-16.7-8.28-16.7-17.73a16.87,16.87,0,0,1,16.7-17.39c10.11,0,17.74,7.48,17.74,17.39A17.75,17.75,0,0,1,296.48,137.66Z"/><path d="M104.44,0h-53A51.68,51.68,0,0,0,0,51.79v135.6c0,28.26,23.05,50.4,52.47,50.4H102c65.94,0,119.59-53.49,119.59-119.24C221.62,53.18,169.05,0,104.44,0Zm3.79,134.57H97.72V102.2h10.51a16.52,16.52,0,0,1,16.7,16.7C124.93,127.83,117.75,134.57,108.23,134.57Z"/><path d="M455.49,330.33h10.6c0,1.27.05,2.48,0,3.69-.49,9.67-2.81,18.73-8.93,26.47a35.6,35.6,0,0,1-14.77,11,47.16,47.16,0,0,1-30.1,2c-11.38-2.9-19.5-9.86-24.67-20.27a58.68,58.68,0,0,1-5.79-31.06A52.43,52.43,0,0,1,386,304.49a38,38,0,0,1,20-19.8,48,48,0,0,1,31.75-2.92c12.11,3,20.42,10.33,25,21.89a50.65,50.65,0,0,1,3.42,17c.07,1.58.05,1.58-1.59,1.58q-34.74,0-69.48,0c-1.24,0-1.66.24-1.7,1.58-.15,5.84,0,11.64,1.66,17.3,3.46,11.88,11.26,19.32,23.24,22.3a28.92,28.92,0,0,0,24.5-4.48,25.64,25.64,0,0,0,9.43-12.55,56.3,56.3,0,0,0,2.26-7.82C455.05,335.93,455.17,333.19,455.49,330.33Zm-60-19h59c-1.08-6-6.47-12.94-12.14-16.07a35.41,35.41,0,0,0-17.74-4.29c-9.43.1-17.55,3.22-23.73,10.59A29.56,29.56,0,0,0,395.5,311.3Z"/><path d="M570.22,306.69l-9.29-5.56a35.46,35.46,0,0,1,13.12-14.71,41.94,41.94,0,0,1,20.76-6.18A42.37,42.37,0,0,1,617.08,285c8.23,4.4,13.45,11.27,16,20.19a47.25,47.25,0,0,1,1.81,12.95q.14,27.72.22,55.45c0,.29,0,.58,0,1H623.6V350.21a73.94,73.94,0,0,1-2.77,8c-4.43,9.52-12.06,15.1-22.29,16.95A46.78,46.78,0,0,1,571.22,372c-9.46-4.09-14.58-12.47-14.46-23.27.08-7.84,2.43-14.7,8.4-20a31.51,31.51,0,0,1,15.12-7.22,51,51,0,0,1,9.47-1c10.83-.13,21.67-.05,32.51-.05h1.79c-.11-2-.14-4-.35-6a31.45,31.45,0,0,0-3.51-12.15A20.26,20.26,0,0,0,606.57,292,35.66,35.66,0,0,0,585.26,293a27.15,27.15,0,0,0-14.35,12.4Zm54.37,23.75H622.8c-8.46,0-16.91,0-25.37,0a83.5,83.5,0,0,0-8.52.4c-5,.55-9.78,1.82-13.95,4.78a16.48,16.48,0,0,0-7.3,12.7c-.41,5.54,2.86,10.65,8.33,13.33a39.48,39.48,0,0,0,21.7,3.74,27.6,27.6,0,0,0,19.95-11,32,32,0,0,0,6.05-15.23C624.08,336.34,624.28,333.47,624.59,330.44Z"/><path d="M249,312.76c-.25-20-.51-39.65-.76-59.38H259v121H248.12V349.24c-.23.74-.42,1.29-.58,1.84a34.49,34.49,0,0,1-9.22,15.76A29,29,0,0,1,222,374.31a29.7,29.7,0,0,1-23.34-6.18c-6.48-5.06-10.21-12-12.33-19.77-2.68-9.89-3-19.95-1.94-30.09.79-7.61,2.72-14.89,6.75-21.45,5.68-9.23,13.88-14.75,24.71-16.13a27.22,27.22,0,0,1,27.26,13.68,48.93,48.93,0,0,1,5.65,17.72C248.81,312.21,248.85,312.32,249,312.76Zm-.8,16.28a59.77,59.77,0,0,0-4.34-21.51c-4.06-9.85-10.75-16.32-22-16.57-6.65-.15-12.59,1.72-17.35,6.56-4.32,4.39-6.55,9.86-7.95,15.72a60.26,60.26,0,0,0-1,22c.82,6.06,2.14,12,5.25,17.33,3.22,5.54,7.67,9.63,14.08,11.12,8.59,2,20.94-1.43,27.48-11.08C247.2,345.47,248.17,337.38,248.18,329Z"/><path d="M373.43,320h-11c-.37-2.42-.59-4.84-1.12-7.18-2.58-11.36-9.59-18.45-21-20.9a45.12,45.12,0,0,0-27.47,2.61,15.42,15.42,0,0,0-8.26,7.24,12,12,0,0,0,3.14,14.95,23.34,23.34,0,0,0,12.05,5.11c4.66.62,9.38.88,14.08,1a83.56,83.56,0,0,1,20.77,2.86c4.6,1.36,8.93,3.29,12.45,6.69a20.32,20.32,0,0,1,6.15,14.64c.21,6.95-1.61,13.23-6.48,18.35a27.74,27.74,0,0,1-11.22,6.83,63.73,63.73,0,0,1-41.79-1.65c-11-4.8-17.86-13-20.49-24.68-.75-3.33-.94-6.79-1.41-10.34h10.89c.11,1.76.07,3.55.34,5.28,1.46,9.33,6.55,16,15.13,19.87,8.07,3.66,16.56,4.5,25.3,3.39a28.58,28.58,0,0,0,13.5-4.9c5.22-3.8,7.28-11.74,4.29-17.09-1.76-3.16-4.77-4.86-8-6.21a45.73,45.73,0,0,0-14.79-3c-5.59-.36-11.21-.42-16.8-.79a42.72,42.72,0,0,1-18.63-5.17c-7.61-4.32-11.06-11-10.93-19.62.16-10,5.09-17.07,13.86-21.63a46.18,46.18,0,0,1,18.13-4.73,78.19,78.19,0,0,1,13.6,0c9.51.95,18.21,4.14,25.2,11A33.53,33.53,0,0,1,372.44,311C372.93,313.9,373.1,316.91,373.43,320Z"/><path d="M549.27,374.62H537.5v-1.57q0-30.23,0-60.44a25.55,25.55,0,0,0-2.22-11,17.12,17.12,0,0,0-13.47-10.14c-11-1.75-20.19,1.42-26.9,10.56-3.17,4.31-4.5,9.39-5.09,14.65a54,54,0,0,0-.31,6q0,25.13,0,50.24v1.73H478.65V280.69h10.82q-.37,15-.74,30a47.1,47.1,0,0,1,2.75-11.49,28.64,28.64,0,0,1,30.57-18.57c5.12.59,10.07,1.64,14.53,4.35a24.85,24.85,0,0,1,11.58,16.25,39.26,39.26,0,0,1,1.07,8.56c.08,21,0,42.08,0,63.12Z"/><path d="M272.24,280.59h10.88v94H272.24Z"/><path d="M497.61,250.5l5.94,2.72c-1,1.44-1.91,2.77-2.77,4.16a10.89,10.89,0,0,0-1,2.2c-.7,2-.34,3.59,1,4.63,1.72,1.34,3.85,1.67,5.43.4a25.22,25.22,0,0,0,4.39-4.55c2.24-3,4.51-5.93,7.94-7.75,5.83-3.08,14.28,0,16.21,5.91a8.31,8.31,0,0,1-.21,5.86c-1.21,2.88-2.65,5.66-4,8.6l-6.38-3.57c.93-1.4,1.9-2.68,2.69-4.06a10.47,10.47,0,0,0,1.13-2.95,3.5,3.5,0,0,0-4.24-4.41c-2.36.39-3.84,2-5.25,3.77-1.7,2.12-3.26,4.37-5.13,6.32-2.64,2.74-5.79,4.66-9.81,4.34a12.74,12.74,0,0,1-8.81-4.32,8.53,8.53,0,0,1-1.92-7.27C493.36,256.71,495.27,253.54,497.61,250.5Z"/><path d="M285.28,261.34a7.6,7.6,0,1,1-7.48-7.74A7.62,7.62,0,0,1,285.28,261.34Z"/></g></g></svg>