<svg xmlns="http://www.w3.org/2000/svg" viewBox="0 0 816.92 237.93"><g id="Capa_2" data-name="Capa 2"><g id="Capa_2-2" data-name="Capa 2"><path d="M600,154.13c9.79,14.43,14.9,28.07,15.17,40.57.3,13.65-5,26.07-15.9,36.91-1.22,1.23-2.52,2.39-3.86,3.5a50.5,50.5,0,0,0,16.42,2.77c18.06,0,34.48-9.59,43.93-25.65l43.89-75.5c2.27-4,6.49-5.74,10-4.17,2.77,1.24,4.87,4.57,3.32,9.22l-.16.5L697,170.86l25.47,41.41a50.3,50.3,0,0,0,43.91,25.61,51.36,51.36,0,0,0,25.61-7,50,50,0,0,0,24.91-43.56A49,49,0,0,0,810,162.18l0-.07L732,27.61C718.39,5.1,695.73,3.35,689.11,3.35A49,49,0,0,0,646.23,27.6L615.67,80.32A101.65,101.65,0,0,1,616.86,95,106,106,0,0,1,600,154.13Z"/><path d="M388.09,205c7.14,19,25.4,32.88,46.16,32.88C461,237.84,482.4,218,484,191.59l.82-13.81,38.91,44.33c8.79,10.31,20,15.73,32.43,15.73,12.85,0,26.31-5.47,35.1-14.26,15.81-15.81,16.65-34.88,2.52-58.16-6.69,7.71-9.42,10.53-18.74,17.68a9.62,9.62,0,0,1-4,1.88c-3.65.72-6.88-.84-8.06-3.89a6.38,6.38,0,0,1,2.85-7.75c25.51-17.85,40-46.35,39.69-78.24C605,44.52,563.13,3.37,512.06,3.37H435.29a50.49,50.49,0,0,0-46.77,30.75A129.33,129.33,0,0,1,388.09,205ZM484,83.45l2.76-1.65a16.62,16.62,0,0,1,9.16-2.55c10.18,0,18.15,8.43,18.15,19.19,0,10.55-7.8,18.5-18.15,18.5-3.13,0-6.08,0-9.16-1.85L484,113.44Z"/><path d="M198.59,197.83a120.36,120.36,0,0,0,89.87,40.1c66.56,0,120.7-53.21,120.7-118.62C409.16,53.52,355,0,288.46,0a120,120,0,0,0-89.22,39.62,127.44,127.44,0,0,1-.65,158.21Zm89.87-99.44c11.54,0,20.23,8.55,20.23,19.88a20.25,20.25,0,0,1-20.23,20.23c-10.22,0-19.18-9.45-19.18-20.23C269.28,105.83,279,98.39,288.46,98.39Z"/><path d="M215.07,118.57C215.07,55,164,3.35,101.22,3.35H48.62A48.84,48.84,0,0,0,0,52.31V186.87c0,26.69,21.81,47.6,49.65,47.6H98.83C162.92,234.47,215.07,182.48,215.07,118.57ZM105,136.89H92.12v-37H105a18.81,18.81,0,0,1,19,19C124,129.16,115.81,136.89,105,136.89Z"/></g></g></svg>