<svg xmlns="http://www.w3.org/2000/svg" viewBox="0 0 816.92 386.43"><defs><style>.adc141b9-88db-49b5-9f02-6a7e39510950{fill:#fffef7;}</style></defs><g id="a81e088f-39a3-4e9e-b8c6-867e3079349c" data-name="Capa 2"><g id="b2b6d48a-a1b9-4719-bb1e-aa36d3f097ca" data-name="Capa 2"><path class="adc141b9-88db-49b5-9f02-6a7e39510950" d="M600,154.13c9.79,14.43,14.9,28.07,15.17,40.57.3,13.65-5,26.07-15.9,36.91-1.22,1.23-2.52,2.39-3.86,3.5a50.5,50.5,0,0,0,16.42,2.77c18.06,0,34.48-9.59,43.93-25.65l43.89-75.5c2.27-4,6.49-5.74,10-4.17,2.77,1.24,4.87,4.57,3.32,9.22l-.16.5L697,170.86l25.47,41.41a50.3,50.3,0,0,0,43.91,25.61,51.36,51.36,0,0,0,25.61-7,50,50,0,0,0,24.91-43.56A49,49,0,0,0,810,162.18l0-.07L732,27.61C718.39,5.1,695.73,3.35,689.11,3.35A49,49,0,0,0,646.23,27.6L615.67,80.32A101.65,101.65,0,0,1,616.86,95,106,106,0,0,1,600,154.13Z"/><path class="adc141b9-88db-49b5-9f02-6a7e39510950" d="M388.09,205c7.14,19,25.4,32.88,46.16,32.88C461,237.84,482.4,218,484,191.59l.82-13.81,38.91,44.33c8.79,10.31,20,15.73,32.43,15.73,12.85,0,26.31-5.47,35.1-14.26,15.81-15.81,16.65-34.88,2.52-58.16-6.69,7.71-9.42,10.53-18.74,17.68a9.62,9.62,0,0,1-4,1.88c-3.65.72-6.88-.84-8.06-3.89a6.38,6.38,0,0,1,2.85-7.75c25.51-17.85,40-46.35,39.69-78.24C605,44.52,563.13,3.37,512.06,3.37H435.29a50.49,50.49,0,0,0-46.77,30.75A129.33,129.33,0,0,1,388.09,205ZM484,83.45l2.76-1.65a16.62,16.62,0,0,1,9.16-2.55c10.18,0,18.15,8.43,18.15,19.19,0,10.55-7.8,18.5-18.15,18.5-3.13,0-6.08,0-9.16-1.85L484,113.44Z"/><path class="adc141b9-88db-49b5-9f02-6a7e39510950" d="M198.59,197.83a120.36,120.36,0,0,0,89.87,40.1c66.56,0,120.7-53.21,120.7-118.62C409.16,53.52,355,0,288.46,0a120,120,0,0,0-89.22,39.62,127.44,127.44,0,0,1-.65,158.21Zm89.87-99.44c11.54,0,20.23,8.55,20.23,19.88a20.25,20.25,0,0,1-20.23,20.23c-10.22,0-19.18-9.45-19.18-20.23C269.28,105.83,279,98.39,288.46,98.39Z"/><path class="adc141b9-88db-49b5-9f02-6a7e39510950" d="M215.07,118.57C215.07,55,164,3.35,101.22,3.35H48.62A48.84,48.84,0,0,0,0,52.31V186.87c0,26.69,21.81,47.6,49.65,47.6H98.83C162.92,234.47,215.07,182.48,215.07,118.57ZM105,136.89H92.12v-37H105a18.81,18.81,0,0,1,19,19C124,129.16,115.81,136.89,105,136.89Z"/><path class="adc141b9-88db-49b5-9f02-6a7e39510950" d="M445.8,332.48h12.54c0,1.49.06,2.93,0,4.37-.58,11.43-3.33,22.16-10.57,31.32a42.1,42.1,0,0,1-17.48,13,55.74,55.74,0,0,1-35.62,2.32c-13.46-3.43-23.08-11.66-29.2-24a69.41,69.41,0,0,1-6.84-36.75,61.86,61.86,0,0,1,5-20.85,45,45,0,0,1,23.64-23.44A56.84,56.84,0,0,1,424.81,275c14.34,3.51,24.17,12.23,29.62,25.9a60.21,60.21,0,0,1,4,20.15c.08,1.87.06,1.88-1.89,1.88q-41.1,0-82.22,0c-1.46,0-2,.29-2,1.87-.18,6.91,0,13.78,2,20.47,4.1,14.06,13.33,22.86,27.51,26.39a34.24,34.24,0,0,0,29-5.3A30.33,30.33,0,0,0,442,351.48a64.6,64.6,0,0,0,2.67-9.24C445.27,339.1,445.42,335.86,445.8,332.48Zm-71-22.53h69.81c-1.28-7.06-7.65-15.31-14.37-19a41.77,41.77,0,0,0-21-5.08c-11.15.12-20.76,3.81-28.07,12.54A34.56,34.56,0,0,0,374.81,310Z"/><path class="adc141b9-88db-49b5-9f02-6a7e39510950" d="M581.57,304.5l-11-6.59a41.92,41.92,0,0,1,15.53-17.4,49.64,49.64,0,0,1,24.56-7.31A50.16,50.16,0,0,1,637,278.87c9.74,5.21,15.92,13.34,19,23.88a56,56,0,0,1,2.15,15.34q.15,32.81.25,65.61c0,.34,0,.69,0,1.15h-13.6V356a85.52,85.52,0,0,1-3.28,9.46c-5.24,11.26-14.26,17.87-26.37,20.06a55.3,55.3,0,0,1-32.33-3.74c-11.21-4.84-17.26-14.75-17.12-27.54.1-9.27,2.88-17.39,9.94-23.71a37.22,37.22,0,0,1,17.9-8.54,60.31,60.31,0,0,1,11.2-1.25c12.82-.15,25.65-.05,38.47-.05h2.12c-.13-2.42-.16-4.75-.41-7.07a37.41,37.41,0,0,0-4.15-14.37,24,24,0,0,0-16.13-12.14c-8.49-2-17-1.92-25.21,1.25a32,32,0,0,0-17,14.67Zm64.33,28.1h-2.12c-10,0-20,0-30,0a96.89,96.89,0,0,0-10.08.47c-5.9.65-11.58,2.15-16.51,5.65a19.53,19.53,0,0,0-8.64,15c-.48,6.55,3.38,12.6,9.86,15.78A46.68,46.68,0,0,0,614.06,374c9.58-1,17.69-5.17,23.62-13a38,38,0,0,0,7.15-18C645.3,339.59,645.54,336.19,645.9,332.6Z"/><path class="adc141b9-88db-49b5-9f02-6a7e39510950" d="M201.42,311.68c-.3-23.69-.6-46.92-.9-70.26h12.77V384.61H200.4V354.85c-.28.87-.5,1.52-.69,2.18-2.1,7.12-5.45,13.49-10.9,18.65s-12,7.77-19.28,8.83a35.05,35.05,0,0,1-27.62-7.31c-7.68-6-12.09-14.15-14.59-23.39-3.18-11.7-3.54-23.61-2.3-35.61.94-9,3.22-17.62,8-25.38,6.71-10.92,16.42-17.46,29.23-19.09a32.2,32.2,0,0,1,32.26,16.19c3.74,6.52,5.64,13.61,6.69,21C201.21,311,201.27,311.16,201.42,311.68Zm-.95,19.26a70.8,70.8,0,0,0-5.14-25.44c-4.79-11.66-12.71-19.32-26.07-19.62-7.87-.18-14.9,2-20.54,7.77-5.11,5.19-7.75,11.67-9.4,18.6a71.24,71.24,0,0,0-1.15,26.07c1,7.17,2.53,14.17,6.21,20.5,3.81,6.57,9.08,11.41,16.66,13.17,10.16,2.36,24.78-1.69,32.52-13.12C199.31,350.39,200.46,340.81,200.47,330.94Z"/><path class="adc141b9-88db-49b5-9f02-6a7e39510950" d="M348.68,320.24H335.62c-.44-2.87-.7-5.73-1.33-8.5C331.24,298.3,323,289.91,309.48,287A53.36,53.36,0,0,0,277,290.1c-4.15,1.75-7.67,4.36-9.77,8.56a14.14,14.14,0,0,0,3.72,17.69,27.68,27.68,0,0,0,14.26,6.06c5.51.73,11.1,1,16.66,1.23,8.32.29,16.57,1,24.58,3.38,5.44,1.61,10.56,3.89,14.73,7.92,4.91,4.73,7.07,10.62,7.27,17.32.25,8.22-1.9,15.65-7.67,21.72a32.53,32.53,0,0,1-13.27,8.07c-7.07,2.47-14.38,3.2-21.81,3.26-9.56.07-18.83-1.34-27.65-5.21-13-5.68-21.13-15.4-24.24-29.2-.89-3.94-1.11-8-1.67-12.24H265c.13,2.08.08,4.2.4,6.25,1.73,11,7.76,18.92,17.9,23.52,9.55,4.33,19.61,5.32,29.95,4,5.76-.73,11.19-2.34,16-5.81,6.18-4.49,8.61-13.89,5.08-20.21-2.09-3.75-5.65-5.76-9.46-7.35-5.6-2.34-11.52-3.2-17.5-3.59-6.62-.42-13.26-.5-19.88-.94a50.71,50.71,0,0,1-22-6.11c-9-5.11-13.1-13-12.94-23.22.19-11.88,6-20.21,16.41-25.6a54.65,54.65,0,0,1,21.44-5.6,93.08,93.08,0,0,1,16.1,0c11.26,1.13,21.55,4.9,29.82,13,6.32,6.2,9.85,13.88,11.27,22.54C348.09,313,348.3,316.59,348.68,320.24Z"/><path class="adc141b9-88db-49b5-9f02-6a7e39510950" d="M556.77,384.89H542.84V383q0-35.76,0-71.52a30.09,30.09,0,0,0-2.63-13,20.23,20.23,0,0,0-15.94-12c-13-2.07-23.89,1.67-31.83,12.49-3.74,5.1-5.32,11.11-6,17.33a66.69,66.69,0,0,0-.37,7.07q0,29.73,0,59.45v2.05H473.2V273.73H486q-.44,17.81-.87,35.54a55.52,55.52,0,0,1,3.25-13.6,33.89,33.89,0,0,1,36.18-22c6.06.69,11.92,1.94,17.19,5.14a29.45,29.45,0,0,1,13.71,19.23,46.2,46.2,0,0,1,1.26,10.13c.1,24.9,0,49.79,0,74.69Z"/><path class="adc141b9-88db-49b5-9f02-6a7e39510950" d="M228.94,273.62h12.88v111.2H228.94Z"/><path class="adc141b9-88db-49b5-9f02-6a7e39510950" d="M495.64,238l7,3.22c-1.13,1.7-2.25,3.29-3.27,4.93a12.68,12.68,0,0,0-1.17,2.6c-.83,2.42-.41,4.24,1.17,5.48,2,1.58,4.55,2,6.42.47a29.06,29.06,0,0,0,5.19-5.38c2.66-3.58,5.35-7,9.4-9.17,6.9-3.64,16.91,0,19.19,7a9.8,9.8,0,0,1-.26,6.94c-1.42,3.41-3.13,6.7-4.79,10.17L527,260c1.11-1.65,2.25-3.16,3.19-4.8a12.43,12.43,0,0,0,1.34-3.49c.72-3.35-1.64-5.77-5-5.21-2.79.45-4.55,2.4-6.21,4.46-2,2.5-3.86,5.16-6.08,7.47-3.11,3.24-6.85,5.52-11.6,5.14a15.09,15.09,0,0,1-10.43-5.11,10.11,10.11,0,0,1-2.27-8.61C490.61,245.36,492.87,241.61,495.64,238Z"/><path class="adc141b9-88db-49b5-9f02-6a7e39510950" d="M244.38,250.83a9,9,0,1,1-8.86-9.15A9,9,0,0,1,244.38,250.83Z"/></g></g></svg>