<svg xmlns="http://www.w3.org/2000/svg" viewBox="0 0 327.85 327.85"><defs><style>.b92f85fa-0f50-4ef8-85e2-5498f3af676f{fill:#e3e903;}</style></defs><g id="ef83edbf-2a64-48d1-b24b-8fc30eece07b" data-name="Capa 2"><g id="f2fa6734-5233-4c25-9754-a0bcb51bb7da" data-name="Capa 1"><path class="b92f85fa-0f50-4ef8-85e2-5498f3af676f" d="M163.92,12.61c83.45,0,151.32,67.87,151.32,151.31S247.37,315.24,163.92,315.24,12.61,247.37,12.61,163.92,80.48,12.61,163.92,12.61ZM291,169.24a6.3,6.3,0,0,0-6.3-6.3l0,.06A14.73,14.73,0,0,1,270,148.29a6.31,6.31,0,0,0-12.61,0,27.13,27.13,0,0,0,5.26,16.06,98.76,98.76,0,0,1-197.5,1.51,27.28,27.28,0,0,0,6.43-17.57,6.31,6.31,0,0,0-12.61,0A14.73,14.73,0,0,1,44.26,163a6.31,6.31,0,0,0,0,12.61A27,27,0,0,0,53,174.13,111.49,111.49,0,0,0,163.87,275.26c58,0,105.92-44.73,110.93-101.6a26.86,26.86,0,0,0,9.89,1.89A6.31,6.31,0,0,0,291,169.24Zm-57.71-37c0-17.42-9.41-31.53-21-31.53s-21,14.11-21,31.53,9.41,31.52,21,31.52S233.28,149.64,233.28,132.24Zm-96.68,0c0-17.42-9.41-31.53-21-31.53s-21,14.11-21,31.53,9.41,31.52,21,31.52S136.6,149.64,136.6,132.24Z"/><path d="M284.69,162.94a6.31,6.31,0,0,1,0,12.61,26.86,26.86,0,0,1-9.89-1.89c-5,56.87-53,101.6-110.93,101.6A111.49,111.49,0,0,1,53,174.13a27,27,0,0,1-8.74,1.48,6.31,6.31,0,0,1,0-12.61A14.73,14.73,0,0,0,59,148.29a6.31,6.31,0,0,1,12.61,0,27.28,27.28,0,0,1-6.43,17.57,98.76,98.76,0,0,0,197.5-1.51,27.13,27.13,0,0,1-5.26-16.06,6.31,6.31,0,0,1,12.61,0A14.73,14.73,0,0,0,284.72,163Z"/><path d="M163.92,0c90.37,0,163.93,73.56,163.93,163.92S254.29,327.85,163.92,327.85,0,254.29,0,163.92,73.55,0,163.92,0ZM315.24,163.92c0-83.44-67.87-151.31-151.32-151.31S12.61,80.48,12.61,163.92,80.48,315.24,163.92,315.24,315.24,247.37,315.24,163.92Z"/><path d="M212.26,100.71c11.61,0,21,14.11,21,31.53s-9.41,31.52-21,31.52-21-14.12-21-31.52S200.65,100.71,212.26,100.71Z"/><path d="M115.59,100.71c11.6,0,21,14.11,21,31.53s-9.41,31.52-21,31.52-21-14.12-21-31.52S104,100.71,115.59,100.71Z"/></g></g></svg>