<svg xmlns="http://www.w3.org/2000/svg" viewBox="0 0 600 1136"><defs><style>.f1c6cadd-2bc3-4812-8193-e3b17152863d{fill:#ff77e6;}.a4f34e0d-9410-40c4-ab79-2ff5ec12e5fc{fill:#e3e903;}</style></defs><g id="b4ab7e6f-d526-4f8c-8a9e-1b47382ad962" data-name="Capa 2"><g id="be64ef9d-3316-4907-b5ea-cd40a7ac98ed" data-name="Capa 1"><path class="f1c6cadd-2bc3-4812-8193-e3b17152863d" d="M487,373.17c-31.75,34.7-83.45,46.52-127.75,25.1s-67.2-68.67-59.82-115.19A108.7,108.7,0,0,1,252.93,80a107.53,107.53,0,0,1-17.5-80H0V768.45a109,109,0,0,1,26.9,7.09,108.68,108.68,0,0,1,208.24,0A108.28,108.28,0,0,1,360.68,808c31,38.4,31,91.57,4.43,130A108.66,108.66,0,0,1,345,1136H600V404.1C559.39,416.81,515.3,404.08,487,373.17Z"/><path class="a4f34e0d-9410-40c4-ab79-2ff5ec12e5fc" d="M159.82,968.28s0-17.73,2.22-42.1a289,289,0,0,1-32.5,28.06s-13.29-11.07-31-28.06c2.21,24.37,2.21,42.1,2.21,42.1s-17,3.69-41.35,6.64c20.68,13.29,34.71,24.37,34.71,24.37s-8.13,16.25-20.68,36.92c23.63-7.38,40.62-11.81,40.62-11.81s7.38,16.24,16.24,39.14c8.86-22.9,16.25-39.14,16.25-39.14s17,4.43,40.61,11.81c-12.55-21.41-20.67-36.92-20.67-36.92s14-11.08,34.7-24.37C176.8,972,159.82,968.28,159.82,968.28Z"/><path d="M417.54,1056.89A108.74,108.74,0,0,0,365.11,938c26.59-38.4,26.59-91.57-4.43-130a108.28,108.28,0,0,0-125.54-32.49,108.68,108.68,0,0,0-208.24,0A109,109,0,0,0,0,768.45V1136H345A108.93,108.93,0,0,0,417.54,1056.89Zm-230.4-20.68c-23.63-7.38-40.61-11.81-40.61-11.81s-7.39,16.24-16.25,39.14c-8.86-22.9-16.24-39.14-16.24-39.14s-17,4.43-40.62,11.81C86,1015.54,94.1,999.29,94.1,999.29s-14-11.08-34.71-24.37c24.37-2.95,41.35-6.64,41.35-6.64s0-17.73-2.21-42.1c17.72,17,31,28.06,31,28.06A289,289,0,0,0,162,926.18c-2.22,24.37-2.22,42.1-2.22,42.1s17,3.69,41.35,6.64c-20.67,13.29-34.7,24.37-34.7,24.37S174.59,1014.8,187.14,1036.21Z"/><path class="a4f34e0d-9410-40c4-ab79-2ff5ec12e5fc" d="M515.82,110.28s0-17.73,2.22-42.1a289,289,0,0,1-32.5,28.06s-13.29-11.07-31-28.06c2.21,24.37,2.21,42.1,2.21,42.1s-17,3.69-41.35,6.64c20.68,13.29,34.71,24.37,34.71,24.37s-8.13,16.25-20.68,36.92C453.05,170.83,470,166.4,470,166.4s7.38,16.24,16.24,39.14c8.86-22.9,16.25-39.14,16.25-39.14s17,4.43,40.61,11.81c-12.55-21.41-20.67-36.92-20.67-36.92s14-11.08,34.7-24.37C532.8,114,515.82,110.28,515.82,110.28Z"/><path d="M235.43,0a107.53,107.53,0,0,0,17.5,80,108.7,108.7,0,0,0,46.52,203.08c-7.38,46.52,15.51,93.78,59.82,115.19s96,9.6,127.75-25.1c28.28,30.91,72.37,43.64,113,30.93V0ZM543.14,178.21c-23.63-7.38-40.61-11.81-40.61-11.81s-7.39,16.24-16.25,39.14C477.42,182.64,470,166.4,470,166.4s-17,4.43-40.62,11.81c12.55-20.67,20.68-36.92,20.68-36.92s-14-11.08-34.71-24.37c24.37-3,41.35-6.64,41.35-6.64s0-17.73-2.21-42.1c17.72,17,31,28.06,31,28.06A289,289,0,0,0,518,68.18c-2.22,24.37-2.22,42.1-2.22,42.1s17,3.69,41.35,6.64c-20.67,13.29-34.7,24.37-34.7,24.37S530.59,156.8,543.14,178.21Z"/></g></g></svg>